<svg width="388" height="512" viewBox="0 0 388 512" fill="none" xmlns="http://www.w3.org/2000/svg">
<g filter="url(#filter0_d_212_52)">
<path d="M384 504L384 258.632L210.102 318.316L384 212.211V0L184.339 291.789V212.211L4 212.211L152.136 331.579L49.0847 490.737L255.186 404.526L384 504Z" fill="url(#paint0_linear_212_52)"/>
</g>
<path d="M113.607 387.074C126.802 388.275 153.602 401.403 173.901 413.766C179.692 417.292 193.817 425.676 210.44 413.766C253.745 386.98 348.07 343.299 378.925 382.859L384 389.04V507L254.084 405.524L45 494.122L113.607 387.074Z" fill="black" stroke="black"/>
<path d="M236.789 300.7C236.789 302.5 244.157 338.5 241.21 356.5C240.228 364 235.61 384.4 225 406H245.14C248.578 392.8 253.589 355.78 246.122 313.3L243.175 298L236.789 300.7Z" fill="black" stroke="black"/>
<path d="M314.139 257L326.614 249.48C327.238 237.156 328.111 212.007 326.614 210.002L328.485 207.496C330.98 212.3 335.222 223.788 332.228 231.308C332.02 232.143 332.103 233.689 334.099 233.188C336.095 232.686 337.842 229.637 338.465 228.175C339.089 231.726 340.087 239.329 339.089 241.334L367.782 224.415C364.871 217.313 357.053 202.357 349.069 199.349C353.02 198.305 362.044 199.224 366.535 211.255C366.743 211.882 367.283 212.759 367.782 211.255V206.242C370.277 209.375 375.267 216.394 375.267 219.402L381.505 215.642C382.129 210.629 382.004 198.973 376.515 192.456C378.178 192.247 382.004 192.581 384 195.589C380.465 183.683 366.036 162.879 336.594 174.91C337.218 172.613 340.212 167.767 347.198 166.764C346.574 165.511 344.204 163.255 339.713 164.258C342 161.124 350.192 155.61 364.663 158.618C355.099 150.889 332.976 142.325 321 169.897C317.881 162.169 307.028 148.466 288.564 155.485C291.683 155.485 298.046 156.362 298.545 159.871C293.139 160.08 280.83 162.503 274.842 170.524C283.99 168.853 303.784 168.519 309.772 180.55C296.05 175.119 266.483 170.775 258 196.843C260.287 194.545 265.485 190.201 267.98 191.203C262.366 197.678 254.257 214.389 266.733 229.428C267.772 221.073 271.972 203.987 280.455 202.483C279.832 203.318 278.958 205.616 280.455 208.122C283.99 203.109 292.556 193.334 298.545 194.336C287.317 202.691 270.725 225.668 294.178 250.734C292.307 241.334 290.81 221.407 299.792 216.895C300 218.984 301.04 223.412 303.535 224.415C304.782 218.357 309.024 205.992 316.01 204.989C316.842 220.655 317.632 252.989 314.139 257Z" fill="black" stroke="black"/>
<path d="M312.617 281.2L325 274C321.037 294 312.617 334.96 310.635 338.8C307.168 350.267 301.125 376.88 304.691 391.6L272 394C273.321 384.667 280.024 358.64 296.271 329.2C301.72 315.067 312.617 285.68 312.617 281.2Z" fill="black" stroke="black"/>
<path d="M238 301L243 298C241.5 291 239.2 276.1 242 272.5C243.5 272.5 246.8 274.2 248 281C248.333 280.833 249.2 280 250 278C252 279.333 255.6 283.9 254 291.5L258 289C260 284 261.4 272.7 251 267.5C253.167 268 258 269.9 260 273.5C260.333 272.667 260.8 270.9 260 270.5C262.833 271.833 268.3 276.2 267.5 283L270.5 281C271.667 277.667 272.7 270 267.5 266C268.833 266 271.6 266.3 272 267.5C272.5 269 269 252.5 245.5 260C247.667 257.833 254.2 253.8 263 255C262.167 253.5 259 250.3 253 249.5C253.333 249 254.6 248 257 248C254.667 246.167 247.9 245 239.5 255C237.167 249.333 229.3 240.2 216.5 249C220.333 249 228.2 249.6 229 252C227.667 251.667 224.4 251.4 222 253C224.333 253 229.4 253.9 231 257.5C225 254.5 211.5 252.3 205.5 267.5C206.5 267 208.8 266 210 266C208.333 268.833 205.6 276.1 208 282.5C209 279.333 211.4 272.9 213 272.5C213 273.333 213.2 275.2 214 276C215.667 272.833 220.1 267.1 224.5 269.5C218.333 273.667 210.4 286.2 228 303C226.667 299.667 224.3 292.5 225.5 290.5C225.667 291 226.4 292.1 228 292.5C227.5 289.5 227 283.3 229 282.5C228.833 283 229 284.3 231 285.5C231.167 281.5 232.3 273.5 235.5 273.5C235.333 282 235.6 299.4 238 301Z" fill="black" stroke="black"/>
<path d="M135 362C140.167 375.333 158.5 399.8 190.5 391C243.167 365.5 354.7 324 379.5 362L384 368V398L253 403L200.5 424.5L115 391L116 387.5L134 359.5L135 362Z" fill="black" stroke="black"/>
<defs>
<filter id="filter0_d_212_52" x="0" y="0" width="388" height="512" filterUnits="userSpaceOnUse" color-interpolation-filters="sRGB">
<feFlood flood-opacity="0" result="BackgroundImageFix"/>
<feColorMatrix in="SourceAlpha" type="matrix" values="0 0 0 0 0 0 0 0 0 0 0 0 0 0 0 0 0 0 127 0" result="hardAlpha"/>
<feOffset dy="4"/>
<feGaussianBlur stdDeviation="2"/>
<feComposite in2="hardAlpha" operator="out"/>
<feColorMatrix type="matrix" values="0 0 0 0 0 0 0 0 0 0 0 0 0 0 0 0 0 0 0.25 0"/>
<feBlend mode="normal" in2="BackgroundImageFix" result="effect1_dropShadow_212_52"/>
<feBlend mode="normal" in="SourceGraphic" in2="effect1_dropShadow_212_52" result="shape"/>
</filter>
<linearGradient id="paint0_linear_212_52" x1="155.28" y1="68.9519" x2="104.079" y2="413.038" gradientUnits="userSpaceOnUse">
<stop stop-color="#732884"/>
<stop offset="0.287725" stop-color="#A53567"/>
<stop offset="0.712725" stop-color="#CB3E4D"/>
<stop offset="1" stop-color="#F3AA1F"/>
</linearGradient>
</defs>
</svg>
